<?xml version="1.0" encoding="utf-8"?>
<!-- Generator: Adobe Illustrator 26.0.3, SVG Export Plug-In . SVG Version: 6.00 Build 0)  -->
<svg version="1.0" id="katman_1" xmlns="http://www.w3.org/2000/svg" xmlns:xlink="http://www.w3.org/1999/xlink" x="0px" y="0px"
	 viewBox="0 0 600 450" style="enable-background:new 0 0 600 450;" xml:space="preserve">
<style type="text/css">
	.st0{fill:#010202;}
	.st1{fill:#F49E7C;}
	.st2{fill:#EF7F75;}
	.st3{fill:#EC6272;}
</style>
<path class="st0" d="M188.1,213.1v-16.8h5.5V244c-1.3,0-2.5,0-3.7,0c-0.2,0-0.6-0.5-0.6-0.9c-0.2-1.3-0.4-2.5-0.6-4.1
	c-4.5,4.5-9.9,6.2-16,5.5c-4.6-0.4-8.9-2.7-11.8-6.3c-5.8-7-5.3-18.3,1-24.9C167.9,207,180,205.7,188.1,213.1z M175.4,213.4
	c-7.4,0-13,5.6-12.9,13c0,7.5,5.6,12.9,12.9,13c7.3,0,13-5.6,13-13C188.3,218.9,182.8,213.4,175.4,213.4z"/>
<path class="st0" d="M517.6,244c-1.3,0-2.4,0-3.6,0c-0.3,0-0.7-0.5-0.8-0.8c-0.2-1.3-0.4-2.5-0.6-4.1c-4.9,4.8-10.7,6.4-17.2,5.3
	c-4.2-0.7-8-2.9-10.6-6.2c-5.7-7.1-5.2-18.4,1.1-24.9c6.1-6.3,18.1-7.5,26.1-0.2v-16.7h5.6V244L517.6,244z M499.5,213.4
	c-7.4,0-12.9,5.6-12.9,13.1c0,7.5,5.6,12.9,12.9,12.9c7.4,0,13-5.6,13-13C512.5,218.9,507,213.4,499.5,213.4z"/>
<path class="st0" d="M325.9,196.2h5.4v17c5.1-4.6,10.8-6,17.2-4.7c4.1,0.7,7.8,3,10.2,6.3c5.5,7.2,4.8,18.3-1.4,24.7
	c-5.7,6-18.3,8-26.5-0.3c-0.3,1.6-0.5,3.2-0.8,4.7h-4.2L325.9,196.2z M356.9,226.5c0.1-7.5-5.3-13-12.7-13.1
	c-7.5-0.1-13.1,5.4-13.1,12.8c0,7.4,5.4,13.1,12.8,13.2C351.3,239.5,356.8,234,356.9,226.5z"/>
<path class="st0" d="M234.1,214c0.2-1.9,0.5-3.5,0.7-5.2h4.2v35.1h-4.4c-0.2-1.7-0.4-3.3-0.6-5.1c-4.5,4.7-9.9,6.5-16.1,5.9
	c-4.7-0.4-9-2.7-11.9-6.4c-5.9-7.2-5.3-18.6,1.3-25.1C213.8,206.7,226.6,205.8,234.1,214z M220.6,213.4c-7.4,0-12.9,5.5-13,12.9
	c-0.2,7.1,5.4,12.9,12.4,13.1c0.2,0,0.4,0,0.6,0c7.4,0,12.9-5.6,12.8-13.1C233.5,218.9,228,213.4,220.6,213.4z"/>
<path class="st0" d="M443.2,214c0.2-1.9,0.5-3.5,0.7-5.2h4.3v35.1h-4.5c-0.2-1.6-0.4-3.3-0.6-5c-8.2,8.8-21.7,6.7-27.6-0.1
	c-6.1-7-6-18.4,0.5-25.3C422.2,206.9,435.6,205.5,443.2,214z M429.7,213.4c-7.4,0-12.9,5.5-13,12.9c-0.2,7.1,5.4,12.9,12.4,13.1
	c0.2,0,0.4,0,0.6,0c7.4,0,12.8-5.6,12.8-13.1C442.6,218.9,437.1,213.4,429.7,213.4z"/>
<path class="st0" d="M289.5,243.9h-5.4v-47.6h5.5v16.8c1.6-1.2,3-2.4,4.7-3.4c5.5-3,13-2.1,17,1.9c2.5,2.5,3.9,5.9,3.9,9.4
	c0.1,7.6,0,15.1,0,22.7h-5.5v-1.4c0-5.9,0-11.9,0-17.8c0-1.3-0.1-2.6-0.3-3.9c-1.2-6.6-7.6-9.8-13.7-6.7c-4.1,2.1-6.1,5.8-6.1,10.2
	c-0.1,6,0,12,0,18.1L289.5,243.9z"/>
<path class="st0" d="M386.9,208c10.7,0,18.7,7.9,18.6,18.4c0,10.4-8,18.4-18.6,18.4s-18.7-7.9-18.7-18.4
	C368.2,215.7,376.2,208,386.9,208z M386.9,213.4c-7.5,0-13,5.4-13.1,12.9c-0.1,7.5,5.5,13.1,13,13.1c7.5,0,13.1-5.5,13.1-13
	S394.4,213.4,386.9,213.4z"/>
<path class="st0" d="M274.6,219c-1.6,0-3.1,0-4.6,0c-0.2,0-0.6-0.4-0.6-0.7c-0.4-2.5-2-4.1-4.4-4.7c-3-0.8-6.1-0.8-9,0.6
	c-1.6,0.7-2.6,2.3-2.5,4.1c0,1.8,1.2,3.3,2.9,3.6c2.6,0.7,5.3,1.2,8,1.8c1.7,0.3,3.4,0.8,5.1,1.4c7.8,2.7,7.4,12.8,2.6,16.5
	c-2.3,1.8-5.1,2.9-8,3.2c-3.6,0.4-7.1,0.1-10.3-1.5c-3.8-1.8-6.3-5.6-6.2-9.9h5.3c0,0.2,0.2,0.6,0.2,0.9c0.3,2,1.7,3.6,3.5,4.3
	c3.5,1.6,7.5,1.6,10.8-0.2c1.7-0.8,2.8-2.5,2.6-4.4c0-1.9-1.3-3.6-3.1-4c-2.6-0.8-5.3-1.2-8-1.9c-1.9-0.4-3.7-0.9-5.4-1.6
	c-6.9-2.7-6.7-11.6-2.2-15.3c3.1-2.5,6.7-3.2,10.5-3.2c3.2,0,6.2,0.7,8.9,2.7C273.3,212.8,274.5,215.5,274.6,219z"/>
<path class="st0" d="M459.6,208.8h3.9c0.3,1.7,0.6,3.4,0.9,5.3c3.7-5.1,8.7-5.9,14.3-5.4v5.1c-0.6,0-1.3,0-2,0
	c-1.7,0.1-3.4,0.1-5,0.5c-4.1,1.1-6.6,4.8-6.6,9.8c-0.1,6.1,0,12.1,0,18.2v1.6h-5.5L459.6,208.8L459.6,208.8z"/>
<path class="st1" d="M83.6,238.1l24.9-13.5c0.5-0.3,1.1-0.3,1.6,0l24.9,13.5c0.8,0.4,1.1,1.4,0.7,2.2c-0.1,0.3-0.4,0.5-0.7,0.7
	L110,254.3c-0.5,0.3-1.1,0.3-1.5,0L83.6,241c-0.8-0.4-1.1-1.4-0.7-2.2C83.1,238.5,83.3,238.2,83.6,238.1z"/>
<path class="st2" d="M83.6,224.9l24.9-13.5c0.5-0.3,1.1-0.3,1.6,0l24.9,13.5c0.8,0.4,1.1,1.4,0.7,2.2c-0.1,0.3-0.4,0.5-0.7,0.7
	L110,241.1c-0.5,0.3-1.1,0.3-1.5,0l-24.9-13.3c-0.8-0.4-1.1-1.4-0.7-2.2C83.1,225.3,83.3,225.1,83.6,224.9z"/>
<path class="st3" d="M83.6,211.9l24.9-13.5c0.5-0.3,1.1-0.3,1.6,0l24.9,13.5c0.8,0.4,1.1,1.4,0.7,2.2c-0.1,0.3-0.4,0.5-0.7,0.7
	L110,228.1c-0.5,0.3-1.1,0.3-1.5,0l-24.9-13.3c-0.8-0.4-1.1-1.4-0.7-2.2C83.1,212.2,83.3,212,83.6,211.9z"/>
</svg>
