<?xml version="1.0" standalone="no"?>
<!DOCTYPE svg PUBLIC "-//W3C//DTD SVG 20010904//EN"
 "http://www.w3.org/TR/2001/REC-SVG-20010904/DTD/svg10.dtd">
<svg version="1.0" xmlns="http://www.w3.org/2000/svg"
 width="866.000000pt" height="650.000000pt" viewBox="0 0 866.000000 650.000000"
 preserveAspectRatio="xMidYMid meet">

<g transform="translate(0.000000,650.000000) scale(0.100000,-0.100000)"
fill="#000000" stroke="none">
<path d="M2717 3663 c-4 -3 -7 -55 -7 -115 0 -59 -2 -108 -4 -108 -2 0 -25 12
-52 28 -43 23 -60 27 -129 26 -93 0 -142 -20 -193 -79 -48 -54 -65 -101 -65
-180 -1 -80 15 -124 63 -179 53 -60 102 -80 195 -81 80 0 103 7 168 49 l27 18
6 -31 c6 -26 11 -31 35 -31 l29 0 0 345 0 345 -33 0 c-19 0 -37 -3 -40 -7z
m-101 -262 c131 -60 134 -265 4 -331 -85 -44 -200 -13 -245 64 -29 50 -34 139
-11 184 18 35 64 78 96 91 40 16 112 12 156 -8z"/>
<path d="M4100 3325 l0 -345 40 0 40 0 0 158 c0 144 2 162 23 202 16 33 34 51
67 68 54 27 85 28 127 2 63 -38 68 -55 71 -252 l4 -178 39 0 39 0 0 183 c0
156 -3 188 -19 222 -53 114 -186 148 -301 77 l-50 -31 0 119 0 120 -40 0 -40
0 0 -345z"/>
<path d="M4700 3325 l0 -345 35 0 c32 0 35 2 35 30 0 36 3 36 40 10 97 -69
250 -63 337 13 104 92 113 273 18 385 -46 55 -98 76 -190 76 -69 1 -86 -3
-129 -26 -27 -16 -52 -28 -57 -28 -5 0 -9 52 -9 115 l0 115 -40 0 -40 0 0
-345z m337 80 c50 -21 72 -42 94 -90 36 -77 15 -173 -50 -228 -58 -49 -164
-50 -227 -2 -84 64 -97 199 -26 279 45 50 141 69 209 41z"/>
<path d="M7390 3550 l0 -119 -35 23 c-101 69 -259 54 -340 -31 -52 -55 -69
-102 -69 -188 -1 -70 3 -86 28 -133 49 -88 128 -132 235 -132 55 0 150 34 165
59 12 19 24 12 31 -19 5 -25 11 -30 36 -30 l29 0 0 345 0 345 -40 0 -40 0 0
-120z m-93 -151 c73 -35 114 -129 93 -211 -25 -94 -101 -145 -200 -136 -100
10 -163 81 -163 184 0 140 141 225 270 163z"/>
<path d="M1660 3570 c-8 -5 -22 -7 -32 -4 -9 2 -19 1 -21 -4 -3 -4 13 -7 36
-7 23 1 41 4 40 9 -3 14 -8 15 -23 6z"/>
<path d="M1447 3559 c7 -7 15 -10 18 -7 3 3 -2 9 -12 12 -14 6 -15 5 -6 -5z"/>
<path d="M1408 3518 c-10 -10 -14 -18 -9 -18 10 0 36 29 30 34 -2 1 -12 -6
-21 -16z"/>
<path d="M1346 3511 c-4 -5 3 -7 14 -4 23 6 26 13 6 13 -8 0 -17 -4 -20 -9z"/>
<path d="M3090 3485 c-105 -33 -173 -134 -174 -255 0 -135 93 -241 224 -257
75 -9 134 4 189 42 l50 34 3 -32 c3 -28 7 -32 36 -35 l32 -3 0 255 0 256 -30
0 c-25 0 -30 -4 -36 -34 l-6 -34 -46 29 c-80 50 -154 61 -242 34z m167 -80
c50 -21 72 -42 94 -90 44 -96 -1 -219 -94 -254 -43 -16 -118 -13 -156 7 -19 9
-48 34 -65 55 -28 35 -31 45 -31 111 0 65 3 77 29 110 51 68 145 93 223 61z"/>
<path d="M3687 3486 c-95 -34 -134 -126 -87 -204 24 -39 54 -53 178 -82 73
-17 96 -27 109 -46 34 -53 -24 -109 -112 -109 -52 1 -95 23 -115 60 -12 22
-25 30 -48 32 -39 3 -46 -8 -32 -51 34 -103 186 -148 308 -91 43 20 56 32 72
67 23 52 25 78 6 123 -20 47 -63 70 -176 96 -101 23 -130 39 -130 73 0 31 11
43 53 61 43 18 59 18 110 4 28 -8 42 -19 54 -45 14 -29 22 -34 50 -34 30 0 33
3 33 31 0 23 -10 42 -38 69 -57 57 -151 75 -235 46z"/>
<path d="M5490 3485 c-148 -48 -217 -223 -146 -368 73 -151 255 -193 402 -94
118 79 142 260 50 380 -60 79 -201 116 -306 82z m167 -80 c50 -21 72 -42 94
-90 45 -97 0 -219 -94 -254 -36 -14 -108 -14 -144 0 -34 13 -80 55 -99 91 -18
34 -18 119 0 161 38 89 149 131 243 92z"/>
<path d="M6102 3481 c-63 -22 -114 -68 -144 -131 -27 -55 -30 -165 -6 -221 68
-156 277 -208 415 -103 l33 25 0 -35 c0 -34 2 -36 35 -36 l35 0 0 256 0 255
-32 -3 c-29 -3 -33 -7 -36 -35 l-3 -32 -47 30 c-83 53 -158 62 -250 30z m185
-80 c63 -29 98 -88 98 -166 0 -51 -5 -69 -28 -104 -46 -69 -145 -100 -224 -70
-34 13 -80 55 -99 91 -18 35 -18 131 0 166 47 90 157 126 253 83z"/>
<path d="M1856 3478 c5 -7 2 -9 -9 -5 -11 4 -14 2 -10 -9 4 -12 8 -12 22 -2 9
7 17 13 19 14 2 1 -4 4 -13 8 -11 4 -14 2 -9 -6z"/>
<path d="M6630 3235 l0 -255 39 0 39 0 4 168 c2 136 6 173 21 199 20 37 63 63
104 63 58 0 73 10 73 46 0 34 0 34 -45 34 -51 0 -109 -21 -141 -51 l-22 -20
-6 35 c-6 32 -11 36 -36 36 l-30 0 0 -255z"/>
<path d="M1298 3473 c7 -3 16 -2 19 1 4 3 -2 6 -13 5 -11 0 -14 -3 -6 -6z"/>
<path d="M1890 3399 c0 -5 5 -7 10 -4 6 3 10 8 10 11 0 2 -4 4 -10 4 -5 0 -10
-5 -10 -11z"/>
<path d="M1820 3381 c0 -5 -10 -12 -22 -14 -17 -3 -14 -5 10 -6 31 -1 43 11
22 24 -5 3 -10 2 -10 -4z"/>
<path d="M1412 3341 c-11 -7 -10 -10 3 -15 23 -9 25 -8 25 9 0 17 -9 19 -28 6z"/>
</g>
</svg>
